<?xml version="1.0" encoding="utf-8"?>
<!-- Generator: Adobe Illustrator 26.4.1, SVG Export Plug-In . SVG Version: 6.00 Build 0)  -->
<svg version="1.1" id="Browser_PHP" xmlns="http://www.w3.org/2000/svg" xmlns:xlink="http://www.w3.org/1999/xlink" x="0px"
	 y="0px" viewBox="0 0 827.05 741.35" style="enable-background:new 0 0 827.05 741.35;" xml:space="preserve">
<style type="text/css">
	.st0{fill:none;}
	.st1{fill:#2D3955;}
	.st2{font-family:'Roboto-Bold';}
	.st3{font-size:130px;}
	.st4{font-family:'Roboto-Light';}
	.st5{fill:#FFF2D9;}
	.st6{fill:#FBDDDD;}
	.st7{opacity:0.1;fill:#FA0D37;}
	.st8{opacity:0.75;fill:#B8C3D6;}
	.st9{display:none;opacity:0.75;fill:#FBDDDD;}
	.st10{opacity:0.75;fill:#FFFFFF;}
	.st11{opacity:0.5;fill:#59FF8B;}
	.st12{opacity:0.5;fill:#FFD229;}
	.st13{opacity:0.5;fill:#FF524A;}
</style>
<g id="Title">
	<rect x="-1.41" y="602.97" class="st0" width="830.46" height="170.38"/>
	<text transform="matrix(1 0 0 1 32.576 701.9954)"><tspan x="0" y="0" class="st1 st2 st3">Browser </tspan><tspan x="510.8" y="0" class="st1 st4 st3">PHP</tspan></text>
</g>
<path id="Background" class="st5" d="M639.14,552.4H187.7c-16.56,0-29.98-13.42-29.98-29.98V70.98c0-16.56,13.42-29.98,29.98-29.98
	h451.44c16.56,0,29.98,13.42,29.98,29.98v451.44C669.12,538.98,655.69,552.4,639.14,552.4z"/>
<g id="Elephpant">
	<path id="Background_00000096059367458079228470000002588821545201098887_" class="st6" d="M534.01,149.86H285.77
		c-22.66,0-41.03,18.37-41.03,41.03v211.46c0,22.66,18.37,41.03,41.03,41.03h248.24c22.66,0,41.03-18.37,41.03-41.03V190.89
		C575.04,168.23,556.67,149.86,534.01,149.86z"/>
	<g id="Elephant">
		<path class="st7" d="M469.24,149.87v106.37c0,24.01-19.48,43.49-43.49,43.49h-30.76v13.48c0,24.01-19.48,43.45-43.49,43.45h-55.73
			c0,0,0,0,0,44.78c0,37.36,28.55,41.58,38.01,41.95h3.02c0,0-1.14,0.07-3.02,0H371c0,0-58.58-7.98-58.58-41.95
			c0-16.17,0-24.31,0-28.13h47.4c13.94,0,51.7-16.3,51.81-56.93h18.27c27.29,0.37,55.98-23.31,55.98-55.98V149.87H469.24z"/>
		<path class="st8" d="M295.77,401.45c0-44.78,0-44.78,0-44.78h55.73c24.01,0,43.49-19.44,43.49-43.45v-13.48h30.76
			c24.01,0,43.49-19.48,43.49-43.49V149.87H288.24c-24.01,0-43.49,19.48-43.49,43.49v206.55c0,24.01,19.48,43.49,43.49,43.49h48.57
			C336.81,443.4,295.77,446.23,295.77,401.45z"/>
		<path class="st9" d="M270.18,391.7c0-42.07,0-42.07,0-42.07h52.35c22.56,0,40.85-18.26,40.85-40.82v-12.67h28.89
			c22.56,0,40.85-18.3,40.85-40.85v-99.93H263.1c-22.56,0-40.85,18.3-40.85,40.85v194.03c0,22.56,18.3,40.85,40.85,40.85h45.63
			C308.73,431.11,270.18,433.76,270.18,391.7z"/>
	</g>
	<g id="Bar">
		<path class="st10" d="M531.55,149.86H288.22c-24.02,0-43.49,19.47-43.49,43.49v23.63h330.3v-23.63
			C575.04,169.33,555.57,149.86,531.55,149.86z"/>
		<g>
			<circle class="st11" cx="363.68" cy="188.76" r="9.65"/>
			<circle class="st12" cx="330.39" cy="188.76" r="9.65"/>
			<circle class="st13" cx="297.1" cy="188.76" r="9.65"/>
		</g>
	</g>
	<g id="Lines_00000129922570782545151840000016168943291696464056_">
		<path class="st7" d="M574.13,291.79H508.8c-1.1,0-1.99,0.89-1.99,1.99v12.59c0,1.1,0.89,1.99,1.99,1.99h65.34V291.79z"/>
		<path class="st7" d="M574.13,262.66H508.8c-1.1,0-1.99,0.89-1.99,1.99v12.59c0,1.1,0.89,1.99,1.99,1.99h65.34V262.66z"/>
	</g>
	<g id="Lines">
		<path class="st7" d="M574.13,375.03H433.88c-1.1,0-1.99,0.89-1.99,1.99v12.59c0,1.1,0.89,1.99,1.99,1.99h140.25V375.03z"/>
		<path class="st7" d="M574.13,345.9H433.88c-1.1,0-1.99,0.89-1.99,1.99v12.59c0,1.1,0.89,1.99,1.99,1.99h140.25V345.9z"/>
	</g>
	<g id="Stroke">
		<path class="st1" d="M531.55,451.7H288.23c-28.57,0-51.81-23.24-51.81-51.81V193.35c0-28.57,23.24-51.81,51.81-51.81h243.32
			c28.57,0,51.81,23.24,51.81,51.81v206.55C583.36,428.46,560.12,451.7,531.55,451.7z M288.23,158.18
			c-19.39,0-35.16,15.77-35.16,35.16v206.55c0,19.39,15.77,35.16,35.16,35.16h243.32c19.39,0,35.16-15.77,35.16-35.16V193.35
			c0-19.39-15.77-35.16-35.16-35.16H288.23z"/>
		<path class="st1" d="M335.46,451.76c-0.5,0-1.07-0.01-1.73-0.03h-45.49c-28.57,0-51.81-23.24-51.81-51.81V193.36
			c0-28.57,23.24-51.81,51.81-51.81h189.32v114.7c0,28.57-23.24,51.81-51.81,51.81h-22.43v5.16c0,28.55-23.24,51.77-51.81,51.77
			h-47.4v36.46c0,11.4,3.02,20.03,8.96,25.64c6.99,6.59,16.62,7.8,20.96,7.99h2.8l0.57,16.63
			C337.24,451.72,336.56,451.76,335.46,451.76z M288.24,158.2c-19.39,0-35.17,15.78-35.17,35.17v206.55
			c0,19.39,15.78,35.17,35.17,35.17h9.58c-6.88-8.53-10.37-19.81-10.37-33.63v-53.11h64.05c19.39,0,35.17-15.76,35.17-35.12v-21.81
			h39.08c19.39,0,35.17-15.78,35.17-35.17V158.2H288.24z"/>
		<path class="st1" d="M618.52,310.4c-28.57,0-51.81-23.24-51.81-51.81v-41.62h16.65v41.62c0,19.39,15.77,35.16,35.16,35.16V310.4z"
			/>
		<circle class="st1" cx="296.28" cy="264.04" r="9.65"/>
	</g>
</g>
</svg>
