<svg viewBox="0 0 827.05 741.35">
	<rect style="fill:none;" x="-1.41" y="602.97" width="830.46" height="170.38"/>
	<text transform="translate(32.576 702)"><tspan style="fill:#2D3955;font-size:130px;font-family:'Roboto-Bold';" x="0" y="0">Browser </tspan><tspan style="fill:#2D3955;font-size:130px;font-family:'Roboto-Light';" x="510.8" y="0">PHP</tspan></text>
    <path style="fill:#FFF2D9;" d="m639.14 552.4h-451.44c-16.56 0-29.98-13.42-29.98-29.98v-451.44c0-16.56 13.42-29.98 29.98-29.98h451.44c16.56 0 29.98 13.42 29.98 29.98v451.44c0 16.56-13.43 29.98-29.98 29.98z"/>
    <path style="fill:#FBDDDD;" d="m534.01 149.86h-248.24c-22.66 0-41.03 18.37-41.03 41.03v211.46c0 22.66 18.37 41.03 41.03 41.03h248.24c22.66 0 41.03-18.37 41.03-41.03v-211.46c0-22.66-18.37-41.03-41.03-41.03z"/>
    <path style="opacity:0.1;fill:#FA0D37;" d="m469.24 149.87v106.37c0 24.01-19.48 43.49-43.49 43.49h-30.76v13.48c0 24.01-19.48 43.45-43.49 43.45h-55.73v44.78c0 37.36 28.55 41.58 38.01 41.95h3.02s-1.14 0.07-3.02 0h37.22s-58.58-7.98-58.58-41.95v-28.13h47.4c13.94 0 51.7-16.3 51.81-56.93h18.27c27.29 0.37 55.98-23.31 55.98-55.98v-110.53h-16.64z"/>
    <path style="opacity:0.75;fill:#B8C3D6;" d="m295.77 401.45v-44.78h55.73c24.01 0 43.49-19.44 43.49-43.45v-13.48h30.76c24.01 0 43.49-19.48 43.49-43.49v-106.38h-181c-24.01 0-43.49 19.48-43.49 43.49v206.55c0 24.01 19.48 43.49 43.49 43.49h48.57s-41.04 2.83-41.04-41.95z"/>
    <path style="opacity:0.75;fill:#FFFFFF;" d="m531.55 149.86h-243.33c-24.02 0-43.49 19.47-43.49 43.49v23.63h330.3v-23.63c0.01-24.02-19.46-43.49-43.48-43.49z"/>
    <circle style="opacity:0.5;fill:#59FF8B;" cx="363.68" cy="188.76" r="9.65"/>
    <circle style="opacity:0.5;fill:#FFD229;" cx="330.39" cy="188.76" r="9.65"/>
    <circle style="opacity:0.5;fill:#FF524A;" cx="297.1" cy="188.76" r="9.65"/>
    <path style="opacity:0.1;fill:#FA0D37;" d="M574.13,291.79H508.8c-1.1,0-1.99,0.89-1.99,1.99v12.59c0,1.1,0.89,1.99,1.99,1.99h65.34V291.79z"/>
	<path style="opacity:0.1;fill:#FA0D37;" d="M574.13,262.66H508.8c-1.1,0-1.99,0.89-1.99,1.99v12.59c0,1.1,0.89,1.99,1.99,1.99h65.34V262.66z"/>
    <path style="opacity:0.1;fill:#FA0D37;" d="M574.13,375.03H433.88c-1.1,0-1.99,0.89-1.99,1.99v12.59c0,1.1,0.89,1.99,1.99,1.99h140.25V375.03z"/>
    <path style="opacity:0.1;fill:#FA0D37;" d="M574.13,345.9H433.88c-1.1,0-1.99,0.89-1.99,1.99v12.59c0,1.1,0.89,1.99,1.99,1.99h140.25V345.9z"/>
    <path style="fill:#2D3955;" d="m531.55 451.7h-243.32c-28.57 0-51.81-23.24-51.81-51.81v-206.54c0-28.57 23.24-51.81 51.81-51.81h243.32c28.57 0 51.81 23.24 51.81 51.81v206.55c0 28.56-23.24 51.8-51.81 51.8zm-243.32-293.52c-19.39 0-35.16 15.77-35.16 35.16v206.55c0 19.39 15.77 35.16 35.16 35.16h243.32c19.39 0 35.16-15.77 35.16-35.16v-206.54c0-19.39-15.77-35.16-35.16-35.16h-243.32z"/>
    <path style="fill:#2D3955;" d="m335.46 451.76c-0.5 0-1.07-0.01-1.73-0.03h-45.49c-28.57 0-51.81-23.24-51.81-51.81v-206.56c0-28.57 23.24-51.81 51.81-51.81h189.32v114.7c0 28.57-23.24 51.81-51.81 51.81h-22.43v5.16c0 28.55-23.24 51.77-51.81 51.77h-47.4v36.46c0 11.4 3.02 20.03 8.96 25.64 6.99 6.59 16.62 7.8 20.96 7.99h2.8l0.57 16.63c-0.16 0.01-0.84 0.05-1.94 0.05zm-47.22-293.56c-19.39 0-35.17 15.78-35.17 35.17v206.55c0 19.39 15.78 35.17 35.17 35.17h9.58c-6.88-8.53-10.37-19.81-10.37-33.63v-53.11h64.05c19.39 0 35.17-15.76 35.17-35.12v-21.81h39.08c19.39 0 35.17-15.78 35.17-35.17v-98.05h-172.68z"/>
    <path style="fill:#2D3955;" d="m618.52 310.4c-28.57 0-51.81-23.24-51.81-51.81v-41.62h16.65v41.62c0 19.39 15.77 35.16 35.16 35.16v16.65z"/>
    <circle style="fill:#2D3955;" cx="296.28" cy="264.04" r="9.65"/>
</svg>
